# xmcd
#
# Track frame offsets: 
#        150
#        450
#        830
#        2882
#        3496
#        3879
#        4667
#        5083
#        7622
#        7922
#        9371
#        9671
#        11722
#        13819
#        33092
#        47024
#        50445
#        64666
#        74736
#        78766
#        83113
#        90905
#        96881
#        102056
#        103890
#        107757
#        117429
#        118068
#        126593
#        137114
#        159609
#        175682
#        180221
#        181764
#        183784
#        185930
#        187515
#        204040
#        204730
#        210427
#        210727
#        211152
#        260726
#        266956
#        283925
#        292799
#        295245
#        317755
#        318633
#        323580
#        341845
#        350866
#        357025
#
# Disc length: 4805 seconds
#
# Revision: 0
# Processed by: cddbd v1.5.2PL0 Copyright (c) Steve Scherf et al.
# Submitted via: ExactAudioCopy v0.95b4
#
DISCID=c912c335
DTITLE=The Beatles  - AB  Road - Complete Purple Chick Set v1.1 Jan.02
DTITLE=Various Artist - D1  FLAC
DYEAR=1900
DGENRE=
TTITLE0=Dialogue And Slates
TTITLE1=Dialogue And Slates
TTITLE2=Dialogue And Slates
TTITLE3=Dialogue And Slates
TTITLE4=Dialogue And Slates
TTITLE5=Dialogue And Slates
TTITLE6=Dialogue And Slates
TTITLE7=Don't Let Me Down 2.01
TTITLE8=Tuning
TTITLE9=Tuning
TTITLE10=Tuning
TTITLE11=All Things Must Pass 2.02
TTITLE12=Tuning
TTITLE13=Don't Let Me Down 2.03
TTITLE14=Dig A Pony 2.04
TTITLE15=Everybody Got Song 2.05
TTITLE16=Don't Let Me Down 2.06
TTITLE17=Let It Down 2.07
TTITLE18=Let It Down 2.08
TTITLE19=Improvisation 2.09
TTITLE20=Brown-eyed Handsome Man 2.10
TTITLE21=I've Got A Feeling 2.11
TTITLE22=A Case Of The Blues 2.12
TTITLE23=Improvisation 2.13
TTITLE24=Improvisation 2.13
TTITLE25=On The Road To Marrakesh 2.15
TTITLE26=Revolution 2.16
TTITLE27=I Shall Be Released 2.17
TTITLE28=Sun King 2.18
TTITLE29=Sun King Don't Let Me Down 2.19
TTITLE30=Don't Let Me Down 2.20
TTITLE31=The Teacher Was A-lookin 2.21
TTITLE32=Don't Let Me Down 2.22
TTITLE33=Don't Let Me Down 2.23
TTITLE34=Sun King 2.24
TTITLE35=Mailman, Bring Me No More Blues 2.25
TTITLE36=I've Got A Feeling 2.26
TTITLE37=Unknown - Unnumbered
TTITLE38=I've Got A Feeling 2.27
TTITLE39=I've Got A Feeling 2.28
TTITLE40=I've Got A Feeling 2.29
TTITLE41=I've Got A Feeling 2.30
TTITLE42=I've Got A Feeling 2.31
TTITLE43=Unknown 2.32
TTITLE44=Speak To Me 2.33
TTITLE45=I've Got A Feeling 2.34
TTITLE46=I've Got A Feeling 2.35
TTITLE47=I've Got A Feeling 2.36
TTITLE48=Mighty Quinn (Quinn The Eskimo) 2.37
TTITLE49=I've Got A Feeling 2.38
TTITLE50=I've Got A Feeling 2.39
TTITLE51=I've Got A Feeling 2.40
TTITLE52=Dialogue
EXTD=
EXTT0=
EXTT1=
EXTT2=
EXTT3=
EXTT4=
EXTT5=
EXTT6=
EXTT7=
EXTT8=
EXTT9=
EXTT10=
EXTT11=
EXTT12=
EXTT13=
EXTT14=
EXTT15=
EXTT16=
EXTT17=
EXTT18=
EXTT19=
EXTT20=
EXTT21=
EXTT22=
EXTT23=
EXTT24=
EXTT25=
EXTT26=
EXTT27=
EXTT28=
EXTT29=
EXTT30=
EXTT31=
EXTT32=
EXTT33=
EXTT34=
EXTT35=
EXTT36=
EXTT37=
EXTT38=
EXTT39=
EXTT40=
EXTT41=
EXTT42=
EXTT43=
EXTT44=
EXTT45=
EXTT46=
EXTT47=
EXTT48=
EXTT49=
EXTT50=
EXTT51=
EXTT52=
PLAYORDER=
